{
  "accessors": [
    {
      "name": "jiayouzhan-Mesh_0_positions",
      "componentType": 5126,
      "count": 144,
      "min": [
        -253.39964294433594,
        1110.7125244140625,
        210.6305389404297
      ],
      "max": [
        255.91038513183594,
        1328.3155517578125,
        346.3666687011719
      ],
      "type": "VEC3",
      "bufferView": 0,
      "byteOffset": 0
    },
    {
      "name": "jiayouzhan-Mesh_0_normals",
      "componentType": 5126,
      "count": 144,
      "min": [
        -1,
        -1,
        -1
      ],
      "max": [
        1,
        1,
        1
      ],
      "type": "VEC3",
      "bufferView": 1,
      "byteOffset": 0
    },
    {
      "name": "jiayouzhan-Mesh_0_texcoords",
      "componentType": 5126,
      "count": 144,
      "min": [
        0,
        0
      ],
      "max": [
        1,
        1
      ],
      "type": "VEC2",
      "bufferView": 2,
      "byteOffset": 0
    },
    {
      "name": "jiayouzhan-Mesh_0_indices",
      "componentType": 5123,
      "count": 216,
      "min": [
        0
      ],
      "max": [
        143
      ],
      "type": "SCALAR",
      "bufferView": 3,
      "byteOffset": 0
    },
    {
      "name": "jiayouzhan-Mesh_1_positions",
      "componentType": 5126,
      "count": 852,
      "min": [
        -319.9283142089844,
        1214.050537109375,
        304.16937255859375
      ],
      "max": [
        320.78961181640625,
        1363.6810302734375,
        314.16937255859375
      ],
      "type": "VEC3",
      "bufferView": 0,
      "byteOffset": 1728
    },
    {
      "name": "jiayouzhan-Mesh_1_normals",
      "componentType": 5126,
      "count": 852,
      "min": [
        -1,
        -1,
        -1
      ],
      "max": [
        1,
        1,
        1
      ],
      "type": "VEC3",
      "bufferView": 1,
      "byteOffset": 1728
    },
    {
      "name": "jiayouzhan-Mesh_1_texcoords",
      "componentType": 5126,
      "count": 852,
      "min": [
        0,
        0
      ],
      "max": [
        0,
        0
      ],
      "type": "VEC2",
      "bufferView": 2,
      "byteOffset": 1152
    },
    {
      "name": "jiayouzhan-Mesh_1_indices",
      "componentType": 5123,
      "count": 1860,
      "min": [
        0
      ],
      "max": [
        851
      ],
      "type": "SCALAR",
      "bufferView": 3,
      "byteOffset": 432
    },
    {
      "name": "jiayouzhan-Mesh_2_positions",
      "componentType": 5126,
      "count": 316,
      "min": [
        -935.4381103515625,
        -0.04676782339811325,
        -415.5234375
      ],
      "max": [
        938.0755615234375,
        1150.3458251953125,
        415.5234375
      ],
      "type": "VEC3",
      "bufferView": 0,
      "byteOffset": 11952
    },
    {
      "name": "jiayouzhan-Mesh_2_normals",
      "componentType": 5126,
      "count": 316,
      "min": [
        -1,
        -1,
        -1
      ],
      "max": [
        1,
        1,
        1
      ],
      "type": "VEC3",
      "bufferView": 1,
      "byteOffset": 11952
    },
    {
      "name": "jiayouzhan-Mesh_2_texcoords",
      "componentType": 5126,
      "count": 316,
      "min": [
        0,
        0
      ],
      "max": [
        1,
        1
      ],
      "type": "VEC2",
      "bufferView": 2,
      "byteOffset": 7968
    },
    {
      "name": "jiayouzhan-Mesh_2_indices",
      "componentType": 5123,
      "count": 528,
      "min": [
        0
      ],
      "max": [
        315
      ],
      "type": "SCALAR",
      "bufferView": 3,
      "byteOffset": 4152
    }
  ],
  "asset": {
    "generator": "obj2gltf",
    "version": "2.0"
  },
  "buffers": [
    {
      "name": "jiayouzhan",
      "byteLength": 47192,
      "uri": "jiayouzhan.bin"
    }
  ],
  "bufferViews": [
    {
      "name": "bufferView_0",
      "buffer": 0,
      "byteLength": 15744,
      "byteOffset": 0,
      "byteStride": 12,
      "target": 34962
    },
    {
      "name": "bufferView_1",
      "buffer": 0,
      "byteLength": 15744,
      "byteOffset": 15744,
      "byteStride": 12,
      "target": 34962
    },
    {
      "name": "bufferView_2",
      "buffer": 0,
      "byteLength": 10496,
      "byteOffset": 31488,
      "byteStride": 8,
      "target": 34962
    },
    {
      "name": "bufferView_3",
      "buffer": 0,
      "byteLength": 5208,
      "byteOffset": 41984,
      "target": 34963
    }
  ],
  "materials": [
    {
      "name": "材质.2",
      "pbrMetallicRoughness": {
        "baseColorFactor": [
          0,
          0,
          0,
          1
        ],
        "metallicFactor": 0,
        "roughnessFactor": 0.95
      },
      "emissiveFactor": [
        0,
        0,
        0
      ],
      "alphaMode": "OPAQUE",
      "doubleSided": false
    },
    {
      "name": "trafficred",
      "pbrMetallicRoughness": {
        "baseColorFactor": [
          0.86000001430511,
          0.32679998874664,
          0.32679998874664,
          1
        ],
        "metallicFactor": 0,
        "roughnessFactor": 0.95
      },
      "emissiveFactor": [
        0,
        0,
        0
      ],
      "alphaMode": "OPAQUE",
      "doubleSided": false
    },
    {
      "name": "材质.1",
      "pbrMetallicRoughness": {
        "baseColorFactor": [
          0.80000001192093,
          0.80000001192093,
          0.80000001192093,
          1
        ],
        "metallicFactor": 0,
        "roughnessFactor": 0.95
      },
      "emissiveFactor": [
        0,
        0,
        0
      ],
      "alphaMode": "OPAQUE",
      "doubleSided": false
    }
  ],
  "meshes": [
    {
      "name": "jiayouzhan-Mesh",
      "primitives": [
        {
          "attributes": {
            "POSITION": 0,
            "NORMAL": 1,
            "TEXCOORD_0": 2
          },
          "indices": 3,
          "material": 0,
          "mode": 4
        },
        {
          "attributes": {
            "POSITION": 4,
            "NORMAL": 5,
            "TEXCOORD_0": 6
          },
          "indices": 7,
          "material": 1,
          "mode": 4
        },
        {
          "attributes": {
            "POSITION": 8,
            "NORMAL": 9,
            "TEXCOORD_0": 10
          },
          "indices": 11,
          "material": 2,
          "mode": 4
        }
      ]
    }
  ],
  "nodes": [
    {
      "name": "jiayouzhan",
      "mesh": 0
    }
  ],
  "scene": 0,
  "scenes": [
    {
      "nodes": [
        0
      ]
    }
  ]
}
