{
  "accessors": [
    {
      "name": "chuanzha-Mesh_0_positions",
      "componentType": 5126,
      "count": 608,
      "min": [
        -3495.9521484375,
        -1606.0264892578125,
        -16303.5439453125
      ],
      "max": [
        3523.01025390625,
        7281.693359375,
        11524.134765625
      ],
      "type": "VEC3",
      "bufferView": 0,
      "byteOffset": 0
    },
    {
      "name": "chuanzha-Mesh_0_normals",
      "componentType": 5126,
      "count": 608,
      "min": [
        -1,
        -1,
        -1
      ],
      "max": [
        1,
        1,
        1
      ],
      "type": "VEC3",
      "bufferView": 1,
      "byteOffset": 0
    },
    {
      "name": "chuanzha-Mesh_0_texcoords",
      "componentType": 5126,
      "count": 608,
      "min": [
        0,
        0
      ],
      "max": [
        1,
        1
      ],
      "type": "VEC2",
      "bufferView": 2,
      "byteOffset": 0
    },
    {
      "name": "chuanzha-Mesh_0_indices",
      "componentType": 5123,
      "count": 912,
      "min": [
        0
      ],
      "max": [
        607
      ],
      "type": "SCALAR",
      "bufferView": 3,
      "byteOffset": 0
    },
    {
      "name": "chuanzha-Mesh_1_positions",
      "componentType": 5126,
      "count": 512,
      "min": [
        -3495.9521484375,
        -1083.2193603515625,
        -16303.5439453125
      ],
      "max": [
        3523.01025390625,
        6758.88623046875,
        11524.134765625
      ],
      "type": "VEC3",
      "bufferView": 0,
      "byteOffset": 7296
    },
    {
      "name": "chuanzha-Mesh_1_normals",
      "componentType": 5126,
      "count": 512,
      "min": [
        -1,
        0,
        -1
      ],
      "max": [
        1,
        0,
        1
      ],
      "type": "VEC3",
      "bufferView": 1,
      "byteOffset": 7296
    },
    {
      "name": "chuanzha-Mesh_1_texcoords",
      "componentType": 5126,
      "count": 512,
      "min": [
        0,
        0.05882352590560913
      ],
      "max": [
        1,
        0.9411764144897461
      ],
      "type": "VEC2",
      "bufferView": 2,
      "byteOffset": 4864
    },
    {
      "name": "chuanzha-Mesh_1_indices",
      "componentType": 5123,
      "count": 768,
      "min": [
        0
      ],
      "max": [
        511
      ],
      "type": "SCALAR",
      "bufferView": 3,
      "byteOffset": 1824
    },
    {
      "name": "chuanzha-Mesh_2_positions",
      "componentType": 5126,
      "count": 768,
      "min": [
        -12750.5029296875,
        8066.58251953125,
        -17883.04296875
      ],
      "max": [
        12749.5537109375,
        9681.810546875,
        -16794.810546875
      ],
      "type": "VEC3",
      "bufferView": 0,
      "byteOffset": 13440
    },
    {
      "name": "chuanzha-Mesh_2_normals",
      "componentType": 5126,
      "count": 768,
      "min": [
        -1,
        -1,
        -1
      ],
      "max": [
        1,
        1,
        1
      ],
      "type": "VEC3",
      "bufferView": 1,
      "byteOffset": 13440
    },
    {
      "name": "chuanzha-Mesh_2_texcoords",
      "componentType": 5126,
      "count": 768,
      "min": [
        0,
        0
      ],
      "max": [
        1,
        1
      ],
      "type": "VEC2",
      "bufferView": 2,
      "byteOffset": 8960
    },
    {
      "name": "chuanzha-Mesh_2_indices",
      "componentType": 5123,
      "count": 1152,
      "min": [
        0
      ],
      "max": [
        767
      ],
      "type": "SCALAR",
      "bufferView": 3,
      "byteOffset": 3360
    },
    {
      "name": "chuanzha-Mesh_3_positions",
      "componentType": 5126,
      "count": 48,
      "min": [
        -12822.09765625,
        9627.3291015625,
        -17901.693359375
      ],
      "max": [
        12822.09765625,
        9827.3291015625,
        -16779.59375
      ],
      "type": "VEC3",
      "bufferView": 0,
      "byteOffset": 22656
    },
    {
      "name": "chuanzha-Mesh_3_normals",
      "componentType": 5126,
      "count": 48,
      "min": [
        -1,
        -1,
        -1
      ],
      "max": [
        1,
        1,
        1
      ],
      "type": "VEC3",
      "bufferView": 1,
      "byteOffset": 22656
    },
    {
      "name": "chuanzha-Mesh_3_texcoords",
      "componentType": 5126,
      "count": 48,
      "min": [
        0,
        0
      ],
      "max": [
        1,
        1
      ],
      "type": "VEC2",
      "bufferView": 2,
      "byteOffset": 15104
    },
    {
      "name": "chuanzha-Mesh_3_indices",
      "componentType": 5123,
      "count": 72,
      "min": [
        0
      ],
      "max": [
        47
      ],
      "type": "SCALAR",
      "bufferView": 3,
      "byteOffset": 5664
    },
    {
      "name": "chuanzha-Mesh_4_positions",
      "componentType": 5126,
      "count": 68,
      "min": [
        -5625.2880859375,
        9830.4736328125,
        -17767.248046875
      ],
      "max": [
        5571.93798828125,
        10639.3095703125,
        -16913.845703125
      ],
      "type": "VEC3",
      "bufferView": 0,
      "byteOffset": 23232
    },
    {
      "name": "chuanzha-Mesh_4_normals",
      "componentType": 5126,
      "count": 68,
      "min": [
        -1,
        -1,
        -1
      ],
      "max": [
        1,
        0.8190059065818787,
        1
      ],
      "type": "VEC3",
      "bufferView": 1,
      "byteOffset": 23232
    },
    {
      "name": "chuanzha-Mesh_4_texcoords",
      "componentType": 5126,
      "count": 68,
      "min": [
        0,
        0
      ],
      "max": [
        1,
        1
      ],
      "type": "VEC2",
      "bufferView": 2,
      "byteOffset": 15488
    },
    {
      "name": "chuanzha-Mesh_4_indices",
      "componentType": 5123,
      "count": 120,
      "min": [
        0
      ],
      "max": [
        67
      ],
      "type": "SCALAR",
      "bufferView": 3,
      "byteOffset": 5808
    },
    {
      "name": "chuanzha-Mesh_5_positions",
      "componentType": 5126,
      "count": 48,
      "min": [
        -12836.37890625,
        -1625.16259765625,
        -18505.888671875
      ],
      "max": [
        12849.7236328125,
        8097.16015625,
        13166.6337890625
      ],
      "type": "VEC3",
      "bufferView": 0,
      "byteOffset": 24048
    },
    {
      "name": "chuanzha-Mesh_5_normals",
      "componentType": 5126,
      "count": 48,
      "min": [
        -1,
        -1,
        -1
      ],
      "max": [
        1,
        1,
        1
      ],
      "type": "VEC3",
      "bufferView": 1,
      "byteOffset": 24048
    },
    {
      "name": "chuanzha-Mesh_5_texcoords",
      "componentType": 5126,
      "count": 48,
      "min": [
        0,
        0
      ],
      "max": [
        1,
        1
      ],
      "type": "VEC2",
      "bufferView": 2,
      "byteOffset": 16032
    },
    {
      "name": "chuanzha-Mesh_5_indices",
      "componentType": 5123,
      "count": 72,
      "min": [
        0
      ],
      "max": [
        47
      ],
      "type": "SCALAR",
      "bufferView": 3,
      "byteOffset": 6048
    }
  ],
  "asset": {
    "generator": "obj2gltf",
    "version": "2.0"
  },
  "buffers": [
    {
      "name": "chuanzha",
      "byteLength": 71856,
      "uri": "chuanzha.bin"
    }
  ],
  "bufferViews": [
    {
      "name": "bufferView_0",
      "buffer": 0,
      "byteLength": 24624,
      "byteOffset": 0,
      "byteStride": 12,
      "target": 34962
    },
    {
      "name": "bufferView_1",
      "buffer": 0,
      "byteLength": 24624,
      "byteOffset": 24624,
      "byteStride": 12,
      "target": 34962
    },
    {
      "name": "bufferView_2",
      "buffer": 0,
      "byteLength": 16416,
      "byteOffset": 49248,
      "byteStride": 8,
      "target": 34962
    },
    {
      "name": "bufferView_3",
      "buffer": 0,
      "byteLength": 6192,
      "byteOffset": 65664,
      "target": 34963
    }
  ],
  "images": [
    {
      "name": "whitewt",
      "uri": "whitewt.png"
    },
    {
      "name": "hangbiao-zhuzi_1",
      "uri": "hangbiao-zhuzi_1.png"
    },
    {
      "name": "shipzha_1",
      "uri": "shipzha_1.png"
    }
  ],
  "materials": [
    {
      "name": "材质.34",
      "pbrMetallicRoughness": {
        "baseColorTexture": {
          "index": 0
        },
        "baseColorFactor": [
          1,
          1,
          1,
          1
        ],
        "metallicFactor": 0,
        "roughnessFactor": 0.95
      },
      "emissiveFactor": [
        0,
        0,
        0
      ],
      "alphaMode": "OPAQUE",
      "doubleSided": false
    },
    {
      "name": "材质.5",
      "pbrMetallicRoughness": {
        "baseColorFactor": [
          0.63921570777893,
          0.1803921610117,
          0.19607843458652,
          1
        ],
        "metallicFactor": 0,
        "roughnessFactor": 0.95
      },
      "emissiveFactor": [
        0,
        0,
        0
      ],
      "alphaMode": "OPAQUE",
      "doubleSided": false
    },
    {
      "name": "材质",
      "pbrMetallicRoughness": {
        "baseColorTexture": {
          "index": 1
        },
        "baseColorFactor": [
          1,
          1,
          1,
          1
        ],
        "metallicFactor": 0,
        "roughnessFactor": 1
      },
      "emissiveFactor": [
        0,
        0,
        0
      ],
      "alphaMode": "OPAQUE",
      "doubleSided": false
    },
    {
      "name": "材质.1",
      "pbrMetallicRoughness": {
        "baseColorFactor": [
          0.80000001192093,
          0.80000001192093,
          0.80000001192093,
          1
        ],
        "metallicFactor": 0,
        "roughnessFactor": 0.95
      },
      "emissiveFactor": [
        0,
        0,
        0
      ],
      "alphaMode": "OPAQUE",
      "doubleSided": false
    },
    {
      "name": "trafficred",
      "pbrMetallicRoughness": {
        "baseColorFactor": [
          0.86000001430511,
          0.32679998874664,
          0.32679998874664,
          1
        ],
        "metallicFactor": 0,
        "roughnessFactor": 0.95
      },
      "emissiveFactor": [
        0,
        0,
        0
      ],
      "alphaMode": "OPAQUE",
      "doubleSided": false
    },
    {
      "name": "材质.7",
      "pbrMetallicRoughness": {
        "baseColorTexture": {
          "index": 2
        },
        "baseColorFactor": [
          1,
          1,
          1,
          1
        ],
        "metallicFactor": 0,
        "roughnessFactor": 0.95
      },
      "emissiveFactor": [
        0,
        0,
        0
      ],
      "alphaMode": "OPAQUE",
      "doubleSided": false
    }
  ],
  "meshes": [
    {
      "name": "chuanzha-Mesh",
      "primitives": [
        {
          "attributes": {
            "POSITION": 0,
            "NORMAL": 1,
            "TEXCOORD_0": 2
          },
          "indices": 3,
          "material": 0,
          "mode": 4
        },
        {
          "attributes": {
            "POSITION": 4,
            "NORMAL": 5,
            "TEXCOORD_0": 6
          },
          "indices": 7,
          "material": 1,
          "mode": 4
        },
        {
          "attributes": {
            "POSITION": 8,
            "NORMAL": 9,
            "TEXCOORD_0": 10
          },
          "indices": 11,
          "material": 2,
          "mode": 4
        },
        {
          "attributes": {
            "POSITION": 12,
            "NORMAL": 13,
            "TEXCOORD_0": 14
          },
          "indices": 15,
          "material": 3,
          "mode": 4
        },
        {
          "attributes": {
            "POSITION": 16,
            "NORMAL": 17,
            "TEXCOORD_0": 18
          },
          "indices": 19,
          "material": 4,
          "mode": 4
        },
        {
          "attributes": {
            "POSITION": 20,
            "NORMAL": 21,
            "TEXCOORD_0": 22
          },
          "indices": 23,
          "material": 5,
          "mode": 4
        }
      ]
    }
  ],
  "nodes": [
    {
      "name": "chuanzha",
      "mesh": 0
    }
  ],
  "samplers": [
    {
      "magFilter": 9729,
      "minFilter": 9986,
      "wrapS": 10497,
      "wrapT": 10497
    }
  ],
  "scene": 0,
  "scenes": [
    {
      "nodes": [
        0
      ]
    }
  ],
  "textures": [
    {
      "name": "whitewt",
      "sampler": 0,
      "source": 0
    },
    {
      "name": "hangbiao-zhuzi_1",
      "sampler": 0,
      "source": 1
    },
    {
      "name": "shipzha_1",
      "sampler": 0,
      "source": 2
    }
  ]
}
